<svg xmlns="http://www.w3.org/2000/svg" height="64" width="64" viewBox="0 0 144 144">
  <g>
    <path id="path1" transform="rotate(0,72,72) translate(32,37) scale(2.5,2.5)  " fill="#000000" d="M2,15L2,26 30.000999,26 30.000422,15z M14,10L18,10 18,12 14,12z M2,7L2,13 30.000315,13 30,7 23,7 9,7z M10,2L10,5 22,5 22,2z M10,0L22,0C23.103001,0,24,0.89700031,24,2L24,5 30,5C31.103001,5,32,5.8969998,32,7L32,26C32,27.103,31.103001,28,30,28L2,28C0.897,28,0,27.103,0,26L0,7C0,5.8969998,0.897,5,2,5L8,5 8,2C8,0.89700031,8.8969998,0,10,0z" />
  </g>
</svg>